<svg xmlns="http://www.w3.org/2000/svg" width="1280" height="720" viewBox="0 0 1280 720">
    

    <defs>
        
        <linearGradient id="endBgGrad" x1="0%" y1="0%" x2="100%" y2="100%">
            <stop offset="0%" style="stop-color:#00418D;stop-opacity:1" />
            <stop offset="50%" style="stop-color:#003270;stop-opacity:1" />
            <stop offset="100%" style="stop-color:#001F45;stop-opacity:1" />
        </linearGradient>
        
        <linearGradient id="topGrad" x1="0%" y1="0%" x2="100%" y2="0%">
            <stop offset="0%" style="stop-color:#4A90D9;stop-opacity:1" />
            <stop offset="100%" style="stop-color:#00418D;stop-opacity:1" />
        </linearGradient>
        
        <pattern id="diagLines" width="60" height="60" patternUnits="userSpaceOnUse" patternTransform="rotate(45)">
            <line x1="0" y1="0" x2="0" y2="60" stroke="#FFFFFF" stroke-width="1" stroke-opacity="0.02" />
        </pattern>
    </defs>

    
    <rect x="0" y="0" width="1280" height="720" fill="url(#endBgGrad)" />

    
    <rect x="0" y="0" width="1280" height="720" fill="url(#diagLines)" />

    
    <circle cx="100" cy="120" r="200" fill="#FFFFFF" fill-opacity="0.02" />
    <circle cx="1180" cy="600" r="250" fill="#FFFFFF" fill-opacity="0.02" />
    <circle cx="640" cy="360" r="350" fill="#4A90D9" fill-opacity="0.02" />

    
    <rect x="0" y="0" width="1280" height="6" fill="url(#topGrad)" />

    
    <line x1="0" y1="180" x2="1280" y2="180" stroke="#FFFFFF" stroke-width="1" stroke-opacity="0.03" />
    <line x1="0" y1="360" x2="1280" y2="360" stroke="#FFFFFF" stroke-width="1" stroke-opacity="0.03" />
    <line x1="0" y1="540" x2="1280" y2="540" stroke="#FFFFFF" stroke-width="1" stroke-opacity="0.03" />
    <line x1="320" y1="0" x2="320" y2="720" stroke="#FFFFFF" stroke-width="1" stroke-opacity="0.03" />
    <line x1="640" y1="0" x2="640" y2="720" stroke="#FFFFFF" stroke-width="1" stroke-opacity="0.03" />
    <line x1="960" y1="0" x2="960" y2="720" stroke="#FFFFFF" stroke-width="1" stroke-opacity="0.03" />

    
    <rect x="100" y="220" width="8" height="280" fill="#4A90D9" fill-opacity="0.6" />
    <rect x="114" y="240" width="3" height="240" fill="#C41E3A" fill-opacity="0.5" />

    
    <rect x="490" y="140" width="300" height="80" fill="#FFFFFF" fill-opacity="0.1" rx="4" />
    <text x="640" y="190" text-anchor="middle" font-family="Arial, sans-serif" font-size="28" font-weight="bold" fill="#FFFFFF" letter-spacing="6">
        POWERCHINA
    </text>

    
    <text x="640" y="320" text-anchor="middle" font-family="Microsoft YaHei, SimHei, sans-serif" font-size="64" font-weight="bold" fill="#FFFFFF" letter-spacing="8">
        {{THANK_YOU}}
    </text>

    
    <text x="640" y="380" text-anchor="middle" font-family="Arial, sans-serif" font-size="26" fill="#4A90D9" letter-spacing="6">
        {{THANK_YOU_EN}}
    </text>

    
    <line x1="490" y1="420" x2="580" y2="420" stroke="#4A90D9" stroke-width="2" />
    <rect x="590" y="415" width="100" height="10" fill="#C41E3A" />
    <line x1="700" y1="420" x2="790" y2="420" stroke="#4A90D9" stroke-width="2" />

    
    <text x="640" y="480" text-anchor="middle" font-family="Microsoft YaHei, sans-serif" font-size="26" fill="#FFFFFF" fill-opacity="0.9">
        欢迎批评指正
    </text>

    
    <text x="640" y="540" text-anchor="middle" font-family="Microsoft YaHei, sans-serif" font-size="18" fill="#FFFFFF" fill-opacity="0.7">
        {{AUTHOR}}
    </text>

    
    <text x="640" y="580" text-anchor="middle" font-family="Microsoft YaHei, sans-serif" font-size="14" fill="#4A90D9" fill-opacity="0.8">
        {{CONTACT_INFO}}
    </text>

    
    </svg>