<svg xmlns="http://www.w3.org/2000/svg" viewBox="0 0 1280 720">
    
    
    <defs>
        
        <linearGradient id="mainGrad" x1="0%" y1="0%" x2="100%" y2="100%">
             <stop offset="0%" style="stop-color:#001F45;stop-opacity:1" />
            <stop offset="100%" style="stop-color:#003270;stop-opacity:1" />
        </linearGradient>

        
        <linearGradient id="goldGrad" x1="0%" y1="0%" x2="100%" y2="0%">
            <stop offset="0%" style="stop-color:#FFD700;stop-opacity:1" />
            <stop offset="100%" style="stop-color:#FFA500;stop-opacity:1" />
        </linearGradient>
    </defs>

    
    <rect width="1280" height="720" fill="url(#mainGrad)" />
    
    
    <defs>
         <pattern id="grid" x="0" y="0" width="100" height="50" patternUnits="userSpaceOnUse">
             <path d="M 0 0 L 100 0 L 100 50" fill="none" stroke="#FFFFFF" stroke-opacity="0.05" stroke-width="1" />
        </pattern>
    </defs>
    <rect width="1280" height="720" fill="url(#grid)" />

    
    <path d="M0,600 L1280,550 L1280,720 L0,720 Z" fill="#000F24" />
    
    
    <rect x="0" y="550" width="1280" height="4" fill="url(#goldGrad)" />

    
    <g transform="translate(640, 280)">
        
        
        <text x="0" y="-60" text-anchor="middle" font-family="Arial, sans-serif" font-size="200" font-weight="bold" fill="#FFFFFF" fill-opacity="0.03">
            THANKS
        </text>
        
        
        <text x="0" y="0" text-anchor="middle" font-family="Microsoft YaHei, SimHei, sans-serif" font-size="64" font-weight="bold" fill="#FFFFFF" letter-spacing="4">
            {{THANK_YOU}}
        </text>

        
        <rect x="-80" y="40" width="160" height="6" fill="#C41E3A" />
        
        
        <text x="0" y="100" text-anchor="middle" font-family="Microsoft YaHei, sans-serif" font-size="32" fill="#B0C4DE" letter-spacing="2">
            {{CLOSING_MESSAGE}}
        </text>

        
        <rect x="-300" y="140" width="600" height="120" fill="#FFFFFF" fill-opacity="0.05" rx="8" />
        
        <text x="0" y="180" text-anchor="middle" font-family="Microsoft YaHei, sans-serif" font-size="20" font-weight="bold" fill="#FFFFFF">
            {{AUTHOR}}
        </text>
        <text x="0" y="220" text-anchor="middle" font-family="Arial, sans-serif" font-size="16" fill="#CED4DA">
            {{CONTACT_INFO}}
        </text>

    </g>

    
    <path d="M0,0 L200,0 L0,200 Z" fill="#0066CC" fill-opacity="0.2" />
    <path d="M1280,720 L1080,720 L1280,520 Z" fill="#C41E3A" fill-opacity="0.2" />

    
     </svg>