<svg xmlns="http://www.w3.org/2000/svg" width="1280" height="720" viewBox="0 0 1280 720">
    

    <defs>
        
        <linearGradient id="coverBgGrad" x1="0%" y1="0%" x2="100%" y2="100%">
            <stop offset="0%" style="stop-color:#0050B3;stop-opacity:1" />
            <stop offset="40%" style="stop-color:#003D8F;stop-opacity:1" />
            <stop offset="100%" style="stop-color:#001F4D;stop-opacity:1" />
        </linearGradient>
        
        <linearGradient id="topGrad" x1="0%" y1="0%" x2="100%" y2="0%">
            <stop offset="0%" style="stop-color:#00B4D8;stop-opacity:1" />
            <stop offset="100%" style="stop-color:#0050B3;stop-opacity:1" />
        </linearGradient>
        
        <linearGradient id="sideGrad" x1="0%" y1="0%" x2="0%" y2="100%">
            <stop offset="0%" style="stop-color:#00B4D8;stop-opacity:1" />
            <stop offset="50%" style="stop-color:#0077B6;stop-opacity:1" />
            <stop offset="100%" style="stop-color:#00B4D8;stop-opacity:1" />
        </linearGradient>
        
        <pattern id="gridPattern" width="60" height="60" patternUnits="userSpaceOnUse">
            <path d="M 60 0 L 0 0 0 60" fill="none" stroke="#FFFFFF" stroke-width="0.5" stroke-opacity="0.08" />
        </pattern>
    </defs>

    
    <rect x="0" y="0" width="1280" height="720" fill="url(#coverBgGrad)" />
    
    
    <rect x="0" y="0" width="1280" height="720" fill="url(#gridPattern)" />

    
    <circle cx="1150" cy="120" r="200" fill="#FFFFFF" fill-opacity="0.03" />
    <circle cx="1200" cy="80" r="120" fill="#00B4D8" fill-opacity="0.05" />
    <circle cx="150" cy="600" r="250" fill="#FFFFFF" fill-opacity="0.02" />
    <circle cx="80" cy="650" r="150" fill="#00B4D8" fill-opacity="0.04" />

    
    <line x1="900" y1="0" x2="1280" y2="380" stroke="#00B4D8" stroke-width="1" stroke-opacity="0.15" />
    <line x1="950" y1="0" x2="1280" y2="330" stroke="#00B4D8" stroke-width="1" stroke-opacity="0.1" />

    
    <rect x="0" y="0" width="1280" height="6" fill="url(#topGrad)" />

    
    <rect x="0" y="180" width="8" height="360" fill="url(#sideGrad)" />
    <rect x="16" y="220" width="3" height="280" fill="#00B4D8" fill-opacity="0.5" />

    
    <rect x="0" y="260" width="900" height="180" fill="#000000" fill-opacity="0.25" />
    <rect x="0" y="260" width="8" height="180" fill="#00B4D8" />

    
    <text x="60" y="340" font-family="Microsoft YaHei, SimHei, sans-serif" font-size="52" font-weight="bold" fill="#FFFFFF">
        {{TITLE}}
    </text>

    
    <text x="60" y="400" font-family="Microsoft YaHei, Arial, sans-serif" font-size="26" fill="#90E0EF">
        {{SUBTITLE}}
    </text>

    
    <line x1="60" y1="480" x2="400" y2="480" stroke="#00B4D8" stroke-width="2" stroke-opacity="0.8" />

    
    <text x="60" y="530" font-family="Microsoft YaHei, sans-serif" font-size="20" fill="#FFFFFF" fill-opacity="0.9">
        汇报人：{{PRESENTER}}
    </text>

    
    <text x="60" y="570" font-family="Microsoft YaHei, sans-serif" font-size="18" fill="#FFFFFF" fill-opacity="0.7">
        {{ORGANIZATION}}
    </text>

    
    <text x="60" y="610" font-family="Arial, Microsoft YaHei, sans-serif" font-size="16" fill="#90E0EF" fill-opacity="0.8">
        {{DATE}}
    </text>

    
    </svg>