<svg xmlns="http://www.w3.org/2000/svg" viewBox="0 0 1280 720">
    
    <rect width="1280" height="720" fill="#FFFFFF" />

    
    <rect x="0" y="0" width="1280" height="70" fill="#0066B3" />
    <rect x="0" y="0" width="6" height="70" fill="#FF6B35" />

    
    <text x="40" y="46" fill="#FFFFFF" font-family="Microsoft YaHei, Arial, sans-serif" font-size="28" font-weight="bold">
        目 录
    </text>

    
    <text x="130" y="46" fill="#FFFFFF" fill-opacity="0.7" font-family="Microsoft YaHei, Arial, sans-serif" font-size="16">
        CONTENTS
    </text>

    
    <text x="1200" y="46" text-anchor="end" fill="#FFFFFF" font-family="Microsoft YaHei, Arial, sans-serif" font-size="16" font-weight="bold">
        {{LOGO}}
    </text>

    
    
    <rect x="80" y="100" width="1120" height="520" fill="none" />

    
    <rect x="80" y="115" width="540" height="95" fill="#E6F3FA" rx="8" />
    <rect x="80" y="115" width="6" height="95" fill="#0066B3" rx="3" />
    <text x="120" y="165" fill="#004080" font-family="Microsoft YaHei, Arial, sans-serif" font-size="36" font-weight="bold">01</text>
    <text x="190" y="158" fill="#004080" font-family="Microsoft YaHei, Arial, sans-serif" font-size="22" font-weight="bold">{{TOC_ITEM_1_TITLE}}</text>
    <text x="120" y="192" fill="#666666" font-family="Microsoft YaHei, Arial, sans-serif" font-size="14">{{TOC_ITEM_1_DESC}}</text>

    
    <rect x="660" y="115" width="540" height="95" fill="#E6F3FA" rx="8" />
    <rect x="660" y="115" width="6" height="95" fill="#0066B3" rx="3" />
    <text x="700" y="165" fill="#004080" font-family="Microsoft YaHei, Arial, sans-serif" font-size="36" font-weight="bold">02</text>
    <text x="770" y="158" fill="#004080" font-family="Microsoft YaHei, Arial, sans-serif" font-size="22" font-weight="bold">{{TOC_ITEM_2_TITLE}}</text>
    <text x="700" y="192" fill="#666666" font-family="Microsoft YaHei, Arial, sans-serif" font-size="14">{{TOC_ITEM_2_DESC}}</text>

    
    <rect x="80" y="235" width="540" height="95" fill="#E8F5EE" rx="8" />
    <rect x="80" y="235" width="6" height="95" fill="#00A86B" rx="3" />
    <text x="120" y="285" fill="#004080" font-family="Microsoft YaHei, Arial, sans-serif" font-size="36" font-weight="bold">03</text>
    <text x="190" y="278" fill="#004080" font-family="Microsoft YaHei, Arial, sans-serif" font-size="22" font-weight="bold">{{TOC_ITEM_3_TITLE}}</text>
    <text x="120" y="312" fill="#666666" font-family="Microsoft YaHei, Arial, sans-serif" font-size="14">{{TOC_ITEM_3_DESC}}</text>

    
    <rect x="660" y="235" width="540" height="95" fill="#E8F5EE" rx="8" />
    <rect x="660" y="235" width="6" height="95" fill="#00A86B" rx="3" />
    <text x="700" y="285" fill="#004080" font-family="Microsoft YaHei, Arial, sans-serif" font-size="36" font-weight="bold">04</text>
    <text x="770" y="278" fill="#004080" font-family="Microsoft YaHei, Arial, sans-serif" font-size="22" font-weight="bold">{{TOC_ITEM_4_TITLE}}</text>
    <text x="700" y="312" fill="#666666" font-family="Microsoft YaHei, Arial, sans-serif" font-size="14">{{TOC_ITEM_4_DESC}}</text>

    
    <rect x="80" y="355" width="540" height="95" fill="none" stroke="#D0D7E0" stroke-width="1" stroke-dasharray="4,4" rx="8" />
    <text x="350" y="410" text-anchor="middle" fill="#999999" font-family="Microsoft YaHei, Arial, sans-serif" font-size="16">{{TOC_ITEM_5_TITLE}}</text>

    
    <rect x="660" y="355" width="540" height="95" fill="none" stroke="#D0D7E0" stroke-width="1" stroke-dasharray="4,4" rx="8" />
    <text x="930" y="410" text-anchor="middle" fill="#999999" font-family="Microsoft YaHei, Arial, sans-serif" font-size="16">{{TOC_ITEM_6_TITLE}}</text>

    
    
    
    <rect x="600" y="520" width="80" height="20" fill="#00A86B" fill-opacity="0.2" rx="3" />
    <rect x="630" y="490" width="20" height="80" fill="#00A86B" fill-opacity="0.2" rx="3" />

    
    </svg>