<svg xmlns="http://www.w3.org/2000/svg" xmlns:ns1="http://www.w3.org/1999/xlink" viewBox="0 0 1280 720">
  <defs>
    
    <linearGradient id="bottomBar" x1="0%" y1="0%" x2="100%" y2="0%">
      <stop offset="0%" stop-color="#003D6B" />
      <stop offset="100%" stop-color="#006BB7" />
    </linearGradient>
    
    <linearGradient id="goldAccent" x1="0%" y1="0%" x2="100%" y2="0%">
      <stop offset="0%" stop-color="#B8860B" />
      <stop offset="50%" stop-color="#D4A84B" />
      <stop offset="100%" stop-color="#B8860B" />
    </linearGradient>
  </defs>
  
  
  <rect width="1280" height="720" fill="#FFFFFF" />
  
  
  <rect x="0" y="0" width="1280" height="6" fill="#006BB7" />
  <rect x="0" y="6" width="1280" height="2" fill="#D4A84B" />
  
  
  <image x="390" y="160" width="500" height="150" ns1:href="重庆大学logo.png" preserveAspectRatio="xMidYMid meet" />
  
  
  <rect x="490" y="340" width="300" height="2" fill="url(#goldAccent)" />
  <circle cx="490" cy="341" r="4" fill="#D4A84B" />
  <circle cx="790" cy="341" r="4" fill="#D4A84B" />
  
  
  <text x="640" y="420" text-anchor="middle" fill="#1A2E44" font-family="Microsoft YaHei, PingFang SC, Arial, sans-serif" font-size="48" font-weight="bold">{{THANK_YOU}}</text>
  
  
  <text x="640" y="475" text-anchor="middle" fill="#006BB7" font-family="Microsoft YaHei, Arial, sans-serif" font-size="18">{{ENDING_SUBTITLE}}</text>
  
  
  <rect x="0" y="560" width="1280" height="160" fill="url(#bottomBar)" />
  
  
  <rect x="0" y="558" width="1280" height="3" fill="#D4A84B" />
  
  
  <line x1="0" y1="600" x2="1280" y2="600" stroke="#FFFFFF" stroke-width="1" stroke-opacity="0.05" />
  <text x="640" y="615" text-anchor="middle" fill="#FFFFFF" font-family="Microsoft YaHei, Arial, sans-serif" font-size="16" font-weight="bold">{{CONTACT_INFO}}</text>
  <text x="640" y="650" text-anchor="middle" fill="#FFFFFF" fill-opacity="0.85" font-family="Microsoft YaHei, Arial, sans-serif" font-size="14">{{EMAIL}}</text>
  
  
  <text x="80" y="660" fill="#FFFFFF" fill-opacity="0.08" font-family="Arial, sans-serif" font-size="80" font-weight="bold">CQU</text>
  
  
  <polygon points="1280,560 1280,720 1120,720" fill="#FFFFFF" fill-opacity="0.03" />
</svg>